<svg xmlns="http://www.w3.org/2000/svg" width="256.676" height="94.925" viewBox="0 0 256.676 94.925">
  <g id="Group_2" data-name="Group 2" transform="translate(-88.695 -387.075)">
    <g id="Layer_x0020_1" transform="translate(187.99 387.095)">
      <path id="Path_1" data-name="Path 1" d="M32,41.416l15.971,5.016v4.881L32,47.178l-16.036,4.15V46.451L32,41.416ZM13.078,52.074.01,55.457v-4l13.069-4.1Zm37.769-4.739L63.981,51.46v4l-13.133-3.4V47.336ZM32,30.869,15.96,37.694v5.454L32,37.789l15.971,5.338v-5.46L32,30.869ZM13.079,38.92.01,44.482v4l13.069-4.368Zm37.769,5.169,13.133,4.389v-4l-13.133-5.59v5.2ZM32,16.928,15.96,26.99v6.954L32,26.73l15.971,7.185V26.949ZM13.079,28.8.011,37v4.122L13.079,35.24Zm37.769,6.413,13.133,5.908V37l-13.133-8.24v6.454ZM32-.02,15.96,13.132v9.752L32,12.5,47.968,22.842V13.078L32-.02ZM13.08,15.495.011,26.213v7L13.08,24.751V15.5Zm37.769,9.214,13.133,8.508v-7L50.849,15.441Z" transform="translate(0 0)" fill="#e31f25" fill-rule="evenodd"/>
    </g>
    <path id="Path_44" data-name="Path 44" d="M7.909-5.934H3.377V-1.36H7.909V-2.912l1.682.349v.854a1.868,1.868,0,0,1-.373,1.35A2.077,2.077,0,0,1,7.8,0H3.486A2.076,2.076,0,0,1,2.064-.359,1.88,1.88,0,0,1,1.7-1.709V-5.517a1.882,1.882,0,0,1,.369-1.347,2.062,2.062,0,0,1,1.422-.362H7.8a2.063,2.063,0,0,1,1.418.362,1.87,1.87,0,0,1,.373,1.347v.684l-1.682.267Zm5,.417a1.882,1.882,0,0,1,.369-1.347A2.062,2.062,0,0,1,14.7-7.226h5.318a2.062,2.062,0,0,1,1.422.362,1.882,1.882,0,0,1,.369,1.347v3.808a1.88,1.88,0,0,1-.369,1.35A2.076,2.076,0,0,1,20.016,0H14.7a2.076,2.076,0,0,1-1.422-.359,1.88,1.88,0,0,1-.369-1.35ZM14.588-1.36h5.544V-5.934H14.588ZM25.334,0V-7.226h1.148l5.086,4.259q.26.212.458.4a4.393,4.393,0,0,1,.362.386q-.041-.608-.055-.861t-.014-.39V-7.226h1.511V0H32.683l-5.3-4.464q-.191-.171-.335-.308a3.825,3.825,0,0,1-.267-.28q.034.335.051.632t.017.516V0ZM43.777-5.961h-4.73v1.552h4.5a2.089,2.089,0,0,1,1.432.362A1.87,1.87,0,0,1,45.356-2.7v.991a1.87,1.87,0,0,1-.373,1.347A2.089,2.089,0,0,1,43.552,0H39.088a2.089,2.089,0,0,1-1.432-.362,1.87,1.87,0,0,1-.373-1.347v-.2l1.483-.308v.854h5.106V-3.008h-4.5a2.062,2.062,0,0,1-1.422-.362,1.882,1.882,0,0,1-.369-1.347v-.8a1.882,1.882,0,0,1,.369-1.347,2.062,2.062,0,0,1,1.422-.362h4.1a2.129,2.129,0,0,1,1.4.349,1.618,1.618,0,0,1,.386,1.237v.15l-1.483.349Zm6.747-1.265V-1.36h4.792V-7.226h1.675v5.517a1.88,1.88,0,0,1-.369,1.35A2.076,2.076,0,0,1,55.2,0H50.634a2.077,2.077,0,0,1-1.418-.359,1.868,1.868,0,0,1-.373-1.35V-7.226ZM60.689,0V-7.226h1.682V-1.36h5.421V0ZM71.955-5.934V0H70.273V-5.934H66.958V-7.226h8.326v1.292ZM77.342,0V-7.226h1.682V0ZM82.7,0V-7.226H83.85l5.086,4.259q.26.212.458.4a4.392,4.392,0,0,1,.362.386q-.041-.608-.055-.861t-.014-.39V-7.226H91.2V0H90.05l-5.3-4.464q-.191-.171-.335-.308a3.825,3.825,0,0,1-.267-.28q.034.335.051.632t.017.516V0Zm18.963-5.934h-5.25V-1.36h5.25V-2.967H98.916V-4.2H103.3v2.488a1.88,1.88,0,0,1-.369,1.35A2.076,2.076,0,0,1,101.507,0H96.523A2.076,2.076,0,0,1,95.1-.359a1.88,1.88,0,0,1-.369-1.35V-5.517A1.882,1.882,0,0,1,95.1-6.863a2.062,2.062,0,0,1,1.422-.362h4.983a2.094,2.094,0,0,1,1.415.355,1.738,1.738,0,0,1,.376,1.285v.164l-1.634.294Zm16.871-.027H113.8v1.552h4.5a2.089,2.089,0,0,1,1.432.362,1.87,1.87,0,0,1,.373,1.347v.991a1.87,1.87,0,0,1-.373,1.347A2.089,2.089,0,0,1,118.31,0h-4.464a2.089,2.089,0,0,1-1.432-.362,1.87,1.87,0,0,1-.373-1.347v-.2l1.483-.308v.854h5.106V-3.008h-4.5A2.062,2.062,0,0,1,112.7-3.37a1.882,1.882,0,0,1-.369-1.347v-.8a1.882,1.882,0,0,1,.369-1.347,2.062,2.062,0,0,1,1.422-.362h4.1a2.129,2.129,0,0,1,1.4.349,1.618,1.618,0,0,1,.386,1.237v.15l-1.483.349ZM123.6,0V-7.226H131V-6h-5.715v1.613h3.336v1.23h-3.336V-1.36h5.783V0Zm16-5.975h-3.78v2.01h3.78a1.016,1.016,0,0,0,.6-.126.54.54,0,0,0,.161-.448v-.868a.531.531,0,0,0-.161-.441A1.016,1.016,0,0,0,139.6-5.975ZM134.169,0V-7.226h6.18a1.9,1.9,0,0,1,1.248.332,1.338,1.338,0,0,1,.386,1.07v1.7a1.34,1.34,0,0,1-.386,1.066,1.887,1.887,0,0,1-1.248.335h-.943L142.741,0h-2.413l-2.912-2.728h-1.593V0Zm13.665,0-4.177-7.226h1.921L148.5-2l2.789-5.223h1.675L149,0Zm7.1,0V-7.226h1.682V0Zm11.437-5.934h-4.532V-1.36h4.532V-2.912l1.682.349v.854a1.868,1.868,0,0,1-.373,1.35A2.077,2.077,0,0,1,166.257,0h-4.313a2.076,2.076,0,0,1-1.422-.359,1.88,1.88,0,0,1-.369-1.35V-5.517a1.882,1.882,0,0,1,.369-1.347,2.062,2.062,0,0,1,1.422-.362h4.313a2.063,2.063,0,0,1,1.418.362,1.87,1.87,0,0,1,.373,1.347v.684l-1.682.267ZM171.514,0V-7.226h7.4V-6H173.2v1.613h3.336v1.23H173.2V-1.36h5.783V0Zm16.83-5.961h-4.73v1.552h4.5a2.089,2.089,0,0,1,1.432.362,1.87,1.87,0,0,1,.373,1.347v.991a1.87,1.87,0,0,1-.373,1.347A2.089,2.089,0,0,1,188.118,0h-4.464a2.089,2.089,0,0,1-1.432-.362,1.87,1.87,0,0,1-.373-1.347v-.2l1.483-.308v.854h5.106V-3.008h-4.5a2.062,2.062,0,0,1-1.422-.362,1.882,1.882,0,0,1-.369-1.347v-.8a1.882,1.882,0,0,1,.369-1.347,2.062,2.062,0,0,1,1.422-.362h4.1a2.129,2.129,0,0,1,1.4.349,1.618,1.618,0,0,1,.386,1.237v.15l-1.483.349Zm15.921-.014h-3.78v1.914h3.78a1.016,1.016,0,0,0,.6-.126.54.54,0,0,0,.161-.448v-.772a.531.531,0,0,0-.161-.441A1.016,1.016,0,0,0,204.265-5.975ZM198.83,0V-7.226h6.18a1.9,1.9,0,0,1,1.248.332,1.338,1.338,0,0,1,.386,1.07v1.613a1.329,1.329,0,0,1-.386,1.063,1.9,1.9,0,0,1-1.248.332h-4.525V0Zm12.845,0L207.5-7.226h1.921L212.345-2l2.789-5.223h1.675L212.837,0Zm10.459-5.934V0h-1.682V-5.934h-3.315V-7.226h8.326v1.292ZM232.941,0V-7.226h1.682V-1.36h5.421V0Zm11.266-5.934V0h-1.682V-5.934H239.21V-7.226h8.326v1.292Zm7.068,4.573h2.174a4.235,4.235,0,0,0,2.461-.54,2.08,2.08,0,0,0,.725-1.784,2.206,2.206,0,0,0-.6-1.678,2.491,2.491,0,0,0-1.777-.571h-2.98ZM249.594,0V-7.226h4.648a4.525,4.525,0,0,1,3.059.93,3.308,3.308,0,0,1,1.07,2.639,3.922,3.922,0,0,1-.417,1.822,3.159,3.159,0,0,1-1.176,1.275,3.409,3.409,0,0,1-1.172.427A9.9,9.9,0,0,1,253.812,0Z" transform="translate(87 482)"/>
    <path id="Path_43" data-name="Path 43" d="M-40.011-11.12h-9.461v4.088h9.01a3.484,3.484,0,0,1,2.864.954,6.06,6.06,0,0,1,.745,3.547V.081A6.06,6.06,0,0,1-37.6,3.628a3.484,3.484,0,0,1-2.864.954H-49.39a3.484,3.484,0,0,1-2.864-.954A6.06,6.06,0,0,1-53,.081V-.441l2.967-.81V1h10.213V-3.34h-9.01a3.442,3.442,0,0,1-2.844-.954,6.106,6.106,0,0,1-.738-3.547V-9.949a6.106,6.106,0,0,1,.738-3.547,3.442,3.442,0,0,1,2.844-.954h8.2a3.534,3.534,0,0,1,2.81.918,5.171,5.171,0,0,1,.772,3.259v.4l-2.967.918Zm13.1,15.7-5.564-19.034H-29l3.664,12.767L-21.5-14.451h2.352l3.91,12.767,3.5-12.767h3.008L-14.308,4.583h-2.27L-20.556-8.581-24.589,4.583ZM-1-3.016h6.33L2.208-10.76Zm-6.467,7.6L.7-14.451h3.24L12.229,4.583H8.456L6.72.423H-2.44l-1.682,4.16ZM27.747-11.156H20.187v5.294h7.561a1.652,1.652,0,0,0,1.2-.333,1.691,1.691,0,0,0,.321-1.179V-9.661a1.659,1.659,0,0,0-.321-1.161A1.652,1.652,0,0,0,27.747-11.156ZM16.878,4.583V-14.451H29.237a3.175,3.175,0,0,1,2.5.873A4.2,4.2,0,0,1,32.5-10.76v4.466a4.208,4.208,0,0,1-.772,2.809,3.157,3.157,0,0,1-2.5.882H27.351l6.672,7.185H29.2L23.372-2.6H20.187V4.583Zm25.156-7.6h6.33L45.247-10.76Zm-6.467,7.6,8.176-19.034h3.24L55.269,4.583H51.5L49.759.423H40.6l-1.682,4.16Z" transform="translate(217.999 463)" fill="#e31f24"/>
  </g>
</svg>
