<?xml version="1.0" encoding="UTF-8"?>
<!DOCTYPE svg PUBLIC "-//W3C//DTD SVG 1.1//EN" "http://www.w3.org/Graphics/SVG/1.1/DTD/svg11.dtd">
<!-- Creator: CorelDRAW -->
<svg xmlns="http://www.w3.org/2000/svg" xml:space="preserve" width="94.9032mm" height="30.3084mm" version="1.1" style="shape-rendering:geometricPrecision; text-rendering:geometricPrecision; image-rendering:optimizeQuality; fill-rule:evenodd; clip-rule:evenodd"
viewBox="0 0 7906.15 2524.92"
 xmlns:xlink="http://www.w3.org/1999/xlink"
 xmlns:xodm="http://www.corel.com/coreldraw/odm/2003">
 <defs>
  <style type="text/css">
   <![CDATA[
    .fil3 {fill:#2B2A29}
    .fil2 {fill:#B0CB1F}
    .fil1 {fill:#00A0E3}
    .fil0 {fill:#2B2A29;fill-rule:nonzero}
   ]]>
  </style>
 </defs>
 <g id="Layer_x0020_1">
  <metadata id="CorelCorpID_0Corel-Layer"/>
  <g id="_2371485191408">
   <path class="fil0" d="M1058.63 2276.76l0 -374.64 124.58 0c21.88,0 38.63,1.22 50.23,3.57 16.21,3.05 29.8,8.9 40.79,17.44 10.98,8.63 19.82,20.67 26.49,36.11 6.69,15.43 9.99,32.44 9.99,51.01 0,31.75 -8.91,58.69 -26.81,80.67 -17.82,22.07 -50.15,33.06 -96.84,33.06l-84.64 0 0 152.79 -43.78 0zm43.78 -196.74l85.26 0c28.26,0 48.23,-5.93 60.13,-17.88 11.83,-11.95 17.74,-28.69 17.74,-50.41 0,-15.61 -3.46,-29.04 -10.45,-40.2 -6.99,-11.16 -16.2,-18.57 -27.57,-22.14 -7.36,-2.18 -20.97,-3.32 -40.7,-3.32l-84.41 0 0 133.95zm277.96 196.74l0 -374.64 43.78 0 0 330.69 162.22 0 0 43.95 -205.99 0zm238.18 0l126.57 -374.64 48 0 134.33 374.64 -49.69 0 -38.17 -113.55 -138.94 0 -35.79 113.55 -46.31 0zm94.93 -153.84l112.44 0 -34.41 -103.87c-10.37,-31.57 -18.2,-57.64 -23.66,-78.22 -4.53,24.42 -10.6,48.39 -18.2,72.12l-36.17 109.97zm499.84 22.41l43.78 12.56c-9.14,40.72 -25.58,71.68 -49.31,93.05 -23.73,21.37 -52.77,32.1 -87.1,32.1 -35.48,0 -64.36,-8.21 -86.64,-24.68 -22.27,-16.39 -39.16,-40.2 -50.76,-71.34 -11.6,-31.22 -17.44,-64.62 -17.44,-100.38 0,-38.98 6.52,-72.99 19.66,-102.03 13.14,-29.04 31.8,-51.11 55.99,-66.19 24.19,-15.1 50.84,-22.59 79.88,-22.59 33.02,0 60.76,9.51 83.18,28.61 22.5,19.09 38.17,45.87 47,80.4l-42.85 11.51c-7.61,-27.21 -18.74,-47.09 -33.26,-59.47 -14.51,-12.47 -32.79,-18.66 -54.83,-18.66 -25.27,0 -46.47,6.89 -63.44,20.66 -16.98,13.78 -28.96,32.36 -35.79,55.56 -6.91,23.28 -10.37,47.26 -10.37,71.94 0,31.83 4.07,59.65 12.2,83.37 8.15,23.81 20.82,41.51 38.02,53.28 17.21,11.77 35.8,17.62 55.84,17.62 24.43,0 45.01,-8.02 61.91,-23.98 16.89,-16.05 28.34,-39.76 34.33,-71.34zm114.9 131.43l0 -374.64 238.25 0 0 43.95 -194.47 0 0 115.11 182.03 0 0 43.95 -182.03 0 0 127.67 202.3 0 0 43.95 -246.08 0zm321.73 0l0 -374.64 65.44 0 78.03 265.2c7.22,24.68 12.45,43.16 15.75,55.46 3.77,-13.6 9.68,-33.66 17.67,-60.08l79.42 -260.58 58.45 0 0 374.64 -41.94 0 0 -313.42 -96.31 313.42 -39.32 0 -95.25 -319.18 0 319.18 -41.94 0zm401.93 0l0 -374.64 238.25 0 0 43.95 -194.47 0 0 115.11 182.03 0 0 43.95 -182.03 0 0 127.67 202.3 0 0 43.95 -246.08 0zm322.19 0l0 -374.64 44.85 0 173.12 294.06 0 -294.06 41.94 0 0 374.64 -44.85 0 -173.12 -294.07 0 294.07 -41.94 0zm433.33 0l0 -330.69 -108.75 0 0 -43.95 261.29 0 0 43.95 -108.75 0 0 330.69 -43.79 0zm199.55 -120.35l41.01 -4.19c1.92,18.84 6.46,34.27 13.59,46.39 7.15,12.04 18.21,21.8 33.19,29.31 14.97,7.41 31.87,11.16 50.61,11.16 16.66,0 31.34,-2.8 44.09,-8.46 12.75,-5.66 22.19,-13.43 28.42,-23.28 6.22,-9.86 9.37,-20.59 9.37,-32.09 0,-11.69 -2.99,-21.88 -8.98,-30.7 -6,-8.72 -15.9,-16.05 -29.73,-22.06 -8.83,-3.84 -28.42,-9.95 -58.75,-18.23 -30.34,-8.29 -51.53,-16.05 -63.68,-23.38 -15.74,-9.41 -27.42,-21.1 -35.09,-34.96 -7.76,-13.86 -11.6,-29.47 -11.6,-46.66 0,-19.01 4.77,-36.71 14.21,-53.11 9.45,-16.48 23.19,-28.95 41.4,-37.5 18.13,-8.55 38.32,-12.82 60.52,-12.82 24.43,0 46.01,4.45 64.67,13.44 18.66,8.89 33.02,22.06 43.09,39.5 10.06,17.35 15.44,37.06 16.2,59.04l-41.94 3.67c-2.22,-23.63 -9.83,-41.51 -22.81,-53.54 -12.98,-12.13 -32.17,-18.14 -57.52,-18.14 -26.42,0 -45.7,5.5 -57.76,16.49 -12.05,10.98 -18.13,24.24 -18.13,39.76 0,13.43 4.3,24.51 12.83,33.22 8.45,8.64 30.34,17.62 65.82,26.69 35.48,9.16 59.83,17.09 73.04,23.89 19.13,10.03 33.34,22.67 42.48,38.1 9.14,15.35 13.67,33.06 13.67,53.12 0,19.97 -4.99,38.63 -15.05,56.24 -10.06,17.62 -24.43,31.31 -43.24,41.08 -18.82,9.76 -39.95,14.65 -63.52,14.65 -29.8,0 -54.77,-4.97 -74.89,-14.83 -20.2,-9.86 -35.95,-24.68 -47.39,-44.56 -11.53,-19.8 -17.52,-42.21 -18.13,-67.24z"/>
   <path class="fil0" d="M174.56 1557.72l0 -98.04 232.74 0c35.6,0 63.36,-9.96 83.29,-29.89 19.93,-19.92 29.89,-46.63 29.89,-80.1 0,-33.48 -9.96,-60.05 -29.89,-79.71 -19.79,-19.66 -47.56,-29.49 -83.02,-29.49l-306.34 0 0 478.24 -101.24 0 0 -579.47 407.31 0c33.47,0 63.36,4.92 89.66,14.75 26.31,9.83 48.49,23.64 66.56,41.45 18.07,17.8 31.88,39.45 41.45,64.96 9.56,25.5 14.35,54.2 14.35,86.08 0,31.35 -4.78,59.91 -14.35,85.69 -9.56,25.77 -23.38,47.95 -41.45,66.55 -18.07,18.59 -40.25,33.07 -66.56,43.44 -26.3,10.36 -56.19,15.55 -89.66,15.55l-232.74 0zm516.5 161.01l0 -579.47 518.1 0 0 101.23 -416.87 0 0 377.02 417.67 0 0 101.23 -518.9 0zm174.55 -251.88l0 -85.28 321.23 0 0 85.28 -321.23 0zm695.05 251.88c-40.39,0 -77.72,-7.57 -111.99,-22.72 -34.27,-15.15 -64.03,-35.87 -89.27,-62.17 -25.24,-26.3 -44.9,-57.52 -58.98,-93.65 -14.08,-36.14 -21.13,-75.19 -21.13,-117.17 0,-42.51 7.05,-81.3 21.13,-116.37 14.08,-35.07 33.74,-64.96 58.98,-89.67 25.24,-24.71 55,-43.84 89.27,-57.38 34.27,-13.55 71.6,-20.33 111.99,-20.33l141.08 0c41.98,0 80.37,6.91 115.17,20.72 34.81,13.82 64.7,33.21 89.67,58.19 24.98,24.98 44.37,54.87 58.19,89.67 13.81,34.81 20.72,73.19 20.72,115.17 0,41.98 -7.04,81.03 -21.12,117.17 -14.08,36.13 -33.75,67.35 -58.98,93.65 -25.24,26.3 -55.13,47.03 -89.67,62.17 -34.54,15.15 -72.54,22.72 -113.98,22.72l-141.08 0zm141.08 -101.23c26.57,0 51.01,-4.79 73.33,-14.35 22.32,-9.57 41.59,-22.72 57.79,-39.45 16.21,-16.74 28.82,-36.81 37.86,-60.18 9.03,-23.38 13.55,-48.62 13.55,-75.73 0,-27.1 -4.52,-52.21 -13.55,-75.32 -9.04,-23.12 -21.65,-42.91 -37.86,-59.38 -16.2,-16.48 -35.47,-29.36 -57.79,-38.66 -22.32,-9.3 -46.76,-13.95 -73.33,-13.95l-141.08 0c-26.03,0 -50.08,4.65 -72.14,13.95 -22.05,9.31 -41.05,22.18 -56.99,38.66 -15.94,16.47 -28.42,36.13 -37.46,58.98 -9.03,22.85 -13.55,48.09 -13.55,75.72 0,27.11 4.52,52.34 13.55,75.73 9.04,23.38 21.53,43.44 37.46,60.18 15.94,16.74 34.94,29.88 56.99,39.45 22.05,9.56 46.1,14.35 72.14,14.35l141.08 0zm540.42 -59.78l0 -98.04 232.74 0c35.61,0 63.37,-9.96 83.29,-29.89 19.93,-19.92 29.89,-46.63 29.89,-80.1 0,-33.48 -9.96,-60.05 -29.89,-79.71 -19.79,-19.66 -47.56,-29.49 -83.02,-29.49l-306.34 0 0 478.24 -101.24 0 0 -579.47 407.31 0c33.47,0 63.37,4.92 89.67,14.75 26.3,9.83 48.48,23.64 66.55,41.45 18.07,17.8 31.88,39.45 41.45,64.96 9.56,25.5 14.35,54.2 14.35,86.08 0,31.35 -4.78,59.91 -14.35,85.69 -9.56,25.77 -23.38,47.95 -41.45,66.55 -18.07,18.59 -40.25,33.07 -66.55,43.44 -26.3,10.36 -56.2,15.55 -89.67,15.55l-232.74 0zm516.5 161.01l0 -579.47 101.23 0 0 478.24 389.77 0 0 101.23 -491 0zm563.53 0l0 -579.47 518.11 0 0 101.23 -416.87 0 0 377.02 417.66 0 0 101.23 -518.9 0zm174.56 -251.88l0 -85.28 321.23 0 0 85.28 -321.23 0zm2305.13 251.88l0 -579.47 101.23 0 0 478.24 389.77 0 0 101.23 -491 0zm569.11 0l0 -579.47 101.23 0 0 579.47 -101.23 0zm301.3 -424.04l0 424.04 -96.45 0 0 -526.07c0,-18.59 4.66,-33.34 13.95,-44.24 9.3,-10.9 21.92,-16.34 37.86,-16.34 7.44,0 14.61,1.6 21.52,4.79 6.91,3.18 14.08,8.5 21.52,15.95l408.9 405.7 0 -424.04 96.45 0 0 530.84c0,19.13 -4.65,34.01 -13.95,44.64 -9.3,10.63 -21.39,15.95 -36.26,15.95 -16.48,0 -31.89,-7.17 -46.24,-21.52l-407.3 -409.7zm1079.23 424.04l-324.41 -255.06c-9.03,-7.44 -14.88,-14.21 -17.54,-20.33 -2.66,-6.11 -3.72,-13.42 -3.18,-21.92 0,-9.03 1.59,-16.87 4.77,-23.52 3.19,-6.64 10.1,-14.21 20.73,-22.71l306.87 -235.94 155.43 0 -379.4 282.96 391.36 296.51 -154.64 0zm-477.44 0l0 -579.47 101.23 0 0 579.47 -101.23 0z"/>
   <path class="fil1" d="M4917.91 2188.16c284.25,0 514.79,-230.5 514.79,-514.72 0,-122.5 -42.8,-234.99 -114.25,-323.32 462.79,402.92 701.13,873.27 535.66,1078.42 -165.41,205.05 -675.26,71.88 -1166.96,-294.89 69.44,34.89 147.82,54.53 230.76,54.52z"/>
   <path class="fil2" d="M4886.78 1148.14c-284.25,0 -514.78,230.5 -514.78,514.72 0,122.5 42.8,234.99 114.25,323.33 -462.8,-402.92 -701.13,-873.27 -535.67,-1078.42 165.41,-205.05 675.27,-71.88 1166.96,294.88 -69.43,-34.88 -147.82,-54.52 -230.76,-54.51z"/>
   <path class="fil3" d="M5742.58 910.08c36.57,-57.46 77.44,-47.34 69.26,-32.11 -497.71,926.51 -952.18,1111.28 -1271.01,1170.58 513.28,-346.23 386.31,-1012.8 215.54,-2030.04 -0.3,-1.85 0.07,-3.46 0.98,-4.91 16.38,-20.88 30.88,-15.16 44.69,0 143.05,513.94 288,911.35 479.01,1041.72 5.96,131.88 -21.59,260.94 -89.52,391.35 100.17,-81.18 209.72,-190.09 305.09,-357.86 74.87,-23.47 156.31,-81.16 245.96,-178.74z"/>
   <path class="fil3" d="M5423.12 674.02c82.97,0 150.22,67.25 150.22,150.22 0,82.97 -67.25,150.21 -150.22,150.21 -82.97,0 -150.21,-67.25 -150.21,-150.21 0,-82.97 67.25,-150.22 150.21,-150.22z"/>
   <polygon class="fil3" points="5586.55,660.01 5186.89,664.84 5303.87,567.29 5663.95,566.02 "/>
   <polygon class="fil3" points="5214.5,877.91 5191.65,659.3 5175.52,872.01 "/>
   <path class="fil3" d="M5293.68 646.12c65.45,0 192.83,1.46 258.29,1.46 0,27.51 15.48,65.23 15.48,92.74 -65.45,0 -222.39,-1.46 -287.84,-1.46 0,-27.52 14.08,-65.23 14.08,-92.74z"/>
  </g>
 </g>
</svg>
