<?xml version="1.0" encoding="utf-8"?>
<!-- Generator: Adobe Illustrator 16.0.0, SVG Export Plug-In . SVG Version: 6.00 Build 0)  -->
<!DOCTYPE svg PUBLIC "-//W3C//DTD SVG 1.1//EN" "http://www.w3.org/Graphics/SVG/1.1/DTD/svg11.dtd">
<svg version="1.1" id="Layer_1" xmlns="http://www.w3.org/2000/svg" xmlns:xlink="http://www.w3.org/1999/xlink" x="0px" y="0px"
	 width="217.143px" height="103.72px" viewBox="0 0 217.143 103.72" enable-background="new 0 0 217.143 103.72"
	 xml:space="preserve">
<g>
	<g>
		
			<rect x="102.717" y="20.086" transform="matrix(0.7067 -0.7075 0.7075 0.7067 12.8226 86.0328)" fill-rule="evenodd" clip-rule="evenodd" fill="#112333" width="14.941" height="14.927"/>
		<polygon fill="#112333" points="110.083,17.072 117.043,10.105 114.088,7.153 131.541,6.174 130.573,23.684 127.583,20.697 
			120.639,27.646 		"/>
		<polygon fill="#112333" points="99.734,27.432 92.775,34.399 89.82,31.447 88.859,48.901 106.368,47.915 103.377,44.927 
			110.32,37.977 		"/>
		<polygon fill="#112333" points="110.102,38.009 117.068,44.969 114.117,47.923 131.571,48.884 130.585,31.375 127.597,34.366 
			120.648,27.423 		"/>
		<polygon fill="#112333" points="99.702,27.671 92.735,20.711 89.784,23.666 88.805,6.213 106.315,7.181 103.327,10.171 
			110.277,17.115 		"/>
		
			<rect x="116.832" y="17.018" transform="matrix(0.7068 -0.7075 0.7075 0.7068 22.2704 89.913)" fill="#FFFFFF" width="5.522" height="2.149"/>
		
			<rect x="97.993" y="35.847" transform="matrix(0.7068 -0.7075 0.7075 0.7068 3.4136 82.1122)" fill="#FFFFFF" width="5.523" height="2.182"/>
		
			<rect x="103.879" y="26.451" transform="matrix(0.7068 -0.7075 0.7075 0.7068 12.8315 86.0144)" fill="#FFFFFF" width="12.586" height="2.157"/>
		
			<rect x="109.154" y="21.24" transform="matrix(0.7065 -0.7077 0.7077 0.7065 12.8644 86.0766)" fill-rule="evenodd" clip-rule="evenodd" fill="#FFFFFF" width="2.125" height="12.574"/>
		
			<rect x="118.58" y="34.192" transform="matrix(0.7066 -0.7076 0.7076 0.7066 8.9427 95.4783)" fill-rule="evenodd" clip-rule="evenodd" fill="#FFFFFF" width="2.071" height="5.524"/>
		
			<rect x="99.719" y="15.354" transform="matrix(0.7069 -0.7073 0.7073 0.7069 16.7201 76.5812)" fill-rule="evenodd" clip-rule="evenodd" fill="#FFFFFF" width="2.079" height="5.526"/>
	</g>
	<g>
		<path fill="#202758" d="M18.239,64.393c-0.187-0.423-0.327-0.738-0.42-0.942c-0.093-0.203-0.165-0.33-0.216-0.381
			c-0.051-0.051-0.417-0.077-1.094-0.077c-0.679,0-1.333,0.14-1.959,0.42c-0.628,0.28-1.18,0.683-1.654,1.208
			c-1.018,1.154-1.544,2.63-1.578,4.428c0.034,1.866,0.526,3.376,1.476,4.529c0.983,1.171,2.256,1.756,3.817,1.756
			c0.696,0,1.39-0.127,2.086-0.381c0.696-0.254,1.29-0.627,1.782-1.12l1.069,2.265c-0.78,0.882-1.959,1.467-3.537,1.756
			c-0.509,0.102-1.179,0.152-2.01,0.152s-1.765-0.178-2.799-0.534c-1.035-0.356-1.943-0.891-2.723-1.603
			c-1.714-1.595-2.57-3.749-2.57-6.463c0-2.816,0.882-5.072,2.646-6.768c1.595-1.544,3.511-2.316,5.751-2.316
			c1.477,0,2.91,0.204,4.3,0.611l0.509,5.267h-2.061C18.697,65.42,18.426,64.817,18.239,64.393z"/>
		<path fill="#202758" d="M32.03,77.905v-1.909l2.036-0.534l-0.917-3.104h-4.987l-0.966,3.206l2.239,0.407v1.934h-6.082l-0.33-1.985
			l1.399-0.458l5.039-15.115h3.155l5.114,15.115l1.171,0.458l-0.254,1.985H32.03z M28.952,69.686h3.078l-1.349-5.725L28.952,69.686z
			"/>
		<path fill="#202758" d="M54.524,66.072c0,2.443-1.179,4.148-3.536,5.115l2.238,4.25l1.603,0.254v2.214h-4.3l-2.646-5.955
			c-0.594,0.051-1.214,0.077-1.857,0.077v3.46l1.322,0.204v2.214h-6.183l-0.229-2.163l1.755-0.356V62.841l-1.73-0.178v-2.316h6.234
			c2.426,0,4.275,0.535,5.547,1.603C53.93,62.968,54.524,64.342,54.524,66.072z M46.026,69.329c0.102,0.018,0.229,0.026,0.381,0.026
			h0.458c1.407,0,2.485-0.313,3.232-0.941c0.661-0.56,0.992-1.314,0.992-2.265c0-1.068-0.349-1.832-1.043-2.291
			c-0.797-0.542-2.138-0.813-4.021-0.813V69.329z"/>
		<path fill="#202758" d="M69.206,60.347l0.483,5.191h-1.984l-1.043-2.519H62.54v4.529h3.868v2.672H62.54v5.013h4.3l0.941-2.519
			h2.01l-0.534,5.191H57.909l-0.356-2.239l1.654-0.331V62.79l-1.603-0.178v-2.265H69.206z"/>
		<path fill="#202758" d="M84.346,60.347l0.484,5.191h-1.985l-1.043-2.519h-4.122v4.529h3.868v2.672h-3.868v5.013h4.301l0.941-2.519
			h2.01l-0.535,5.191H73.048l-0.356-2.239l1.655-0.331V62.79l-1.604-0.178v-2.265H84.346z"/>
		<path fill="#202758" d="M101.395,66.072c0,2.443-1.179,4.148-3.537,5.115l2.24,4.25l1.603,0.254v2.214h-4.3l-2.647-5.955
			c-0.594,0.051-1.212,0.077-1.857,0.077v3.46l1.324,0.204v2.214h-6.184l-0.229-2.163l1.756-0.356V62.841l-1.731-0.178v-2.316h6.234
			c2.425,0,4.275,0.535,5.546,1.603C100.801,62.968,101.395,64.342,101.395,66.072z M92.896,69.329
			c0.102,0.018,0.229,0.026,0.382,0.026h0.457c1.409,0,2.485-0.313,3.232-0.941c0.662-0.56,0.992-1.314,0.992-2.265
			c0-1.068-0.347-1.832-1.043-2.291c-0.797-0.542-2.137-0.813-4.021-0.813V69.329z"/>
		<path fill="#EF3924" d="M111.483,74.852c0.281-0.17,0.501-0.386,0.662-0.649c0.162-0.262,0.242-0.572,0.242-0.929
			c0-0.356-0.063-0.657-0.191-0.903c-0.127-0.246-0.327-0.471-0.597-0.674c-0.323-0.254-0.972-0.61-1.947-1.068
			c-0.976-0.458-1.743-0.84-2.303-1.146c-0.56-0.305-1.052-0.653-1.475-1.043c-0.882-0.865-1.323-1.985-1.323-3.358
			c0-1.426,0.577-2.596,1.73-3.512c1.102-0.848,2.51-1.272,4.223-1.272c1.595,0,3.207,0.229,4.835,0.687l0.382,4.834h-2.138
			l-1.247-2.697c-0.662-0.102-1.34-0.153-2.036-0.153s-1.251,0.187-1.667,0.56s-0.623,0.78-0.623,1.222s0.109,0.793,0.33,1.056
			c0.221,0.263,0.501,0.496,0.841,0.7c0.407,0.254,1.072,0.598,1.997,1.03c0.925,0.433,1.667,0.823,2.227,1.17
			c0.56,0.348,1.017,0.725,1.374,1.132c0.729,0.797,1.095,1.726,1.095,2.786c0,1.061-0.188,1.921-0.56,2.583
			c-0.374,0.662-0.857,1.205-1.45,1.629c-1.12,0.78-2.563,1.17-4.326,1.17c-1.561,0-3.292-0.382-5.191-1.145l0.509-4.912
			l2.137,0.178l0.204,2.825c0.22,0.05,0.521,0.127,0.904,0.229c0.381,0.102,0.793,0.153,1.234,0.153c0.44,0,0.839-0.038,1.196-0.114
			C110.886,75.144,111.204,75.021,111.483,74.852z"/>
		<path fill="#EF3924" d="M121.141,75.869l2.926-0.56v-12.29h-2.875l-1.094,2.544h-1.959l0.483-5.216h14.123l0.56,5.191h-1.935
			l-1.119-2.519h-2.902v12.29l2.953,0.56l-0.254,2.036h-8.652L121.141,75.869z"/>
		<path fill="#EF3924" d="M149.105,66.072c0,2.443-1.179,4.148-3.538,5.115l2.24,4.25l1.603,0.254v2.214h-4.3l-2.647-5.955
			c-0.594,0.051-1.213,0.077-1.857,0.077v3.46l1.323,0.204v2.214h-6.183l-0.229-2.163l1.755-0.356V62.841l-1.73-0.178v-2.316h6.234
			c2.426,0,4.275,0.535,5.547,1.603C148.511,62.968,149.105,64.342,149.105,66.072z M140.606,69.329
			c0.102,0.018,0.229,0.026,0.382,0.026h0.457c1.408,0,2.485-0.313,3.232-0.941c0.662-0.56,0.992-1.314,0.992-2.265
			c0-1.068-0.347-1.832-1.043-2.291c-0.797-0.542-2.137-0.813-4.02-0.813V69.329z"/>
		<path fill="#EF3924" d="M163.786,60.347l0.484,5.191h-1.985l-1.043-2.519h-4.122v4.529h3.868v2.672h-3.868v5.013h4.301
			l0.941-2.519h2.01l-0.535,5.191h-11.349l-0.356-2.239l1.655-0.331V62.79l-1.604-0.178v-2.265H163.786z"/>
		<path fill="#EF3924" d="M178.927,60.347l0.483,5.191h-1.984l-1.043-2.519h-4.122v4.529h3.868v2.672h-3.868v5.013h4.3l0.941-2.519
			h2.01l-0.534,5.191h-11.349l-0.356-2.239l1.654-0.331V62.79l-1.603-0.178v-2.265H178.927z"/>
		<path fill="#EF3924" d="M184.677,75.869l2.926-0.56v-12.29h-2.875l-1.094,2.544h-1.959l0.484-5.216h14.121l0.56,5.191h-1.933
			l-1.12-2.519h-2.9v12.29l2.951,0.56l-0.254,2.036h-8.652L184.677,75.869z"/>
		<path fill="#EF3924" d="M206.14,74.852c0.281-0.17,0.501-0.386,0.662-0.649c0.162-0.262,0.242-0.572,0.242-0.929
			c0-0.356-0.063-0.657-0.191-0.903c-0.127-0.246-0.327-0.471-0.597-0.674c-0.323-0.254-0.972-0.61-1.947-1.068
			c-0.976-0.458-1.743-0.84-2.303-1.146c-0.56-0.305-1.052-0.653-1.475-1.043c-0.882-0.865-1.323-1.985-1.323-3.358
			c0-1.426,0.577-2.596,1.73-3.512c1.102-0.848,2.51-1.272,4.223-1.272c1.595,0,3.207,0.229,4.835,0.687l0.382,4.834h-2.138
			l-1.247-2.697c-0.662-0.102-1.34-0.153-2.036-0.153s-1.251,0.187-1.667,0.56c-0.415,0.373-0.623,0.78-0.623,1.222
			s0.109,0.793,0.33,1.056c0.221,0.263,0.501,0.496,0.841,0.7c0.407,0.254,1.072,0.598,1.997,1.03
			c0.925,0.433,1.667,0.823,2.227,1.17c0.56,0.348,1.017,0.725,1.374,1.132c0.729,0.797,1.095,1.726,1.095,2.786
			c0,1.061-0.188,1.921-0.56,2.583c-0.374,0.662-0.857,1.205-1.45,1.629c-1.12,0.78-2.563,1.17-4.326,1.17
			c-1.561,0-3.292-0.382-5.191-1.145l0.509-4.912l2.137,0.178l0.204,2.825c0.22,0.05,0.521,0.127,0.904,0.229
			c0.381,0.102,0.793,0.153,1.234,0.153c0.44,0,0.839-0.038,1.196-0.114C205.542,75.144,205.86,75.021,206.14,74.852z"/>
	</g>
	<g>
		<path fill="#202758" d="M18.375,64.36c-0.187-0.424-0.327-0.738-0.42-0.942c-0.093-0.203-0.165-0.33-0.216-0.381
			c-0.051-0.051-0.417-0.076-1.095-0.076c-0.679,0-1.332,0.14-1.959,0.419c-0.628,0.28-1.18,0.684-1.654,1.209
			c-1.018,1.154-1.544,2.629-1.578,4.428c0.034,1.866,0.525,3.375,1.476,4.529c0.983,1.171,2.256,1.756,3.817,1.756
			c0.696,0,1.391-0.127,2.086-0.381c0.695-0.254,1.289-0.628,1.781-1.12l1.069,2.265c-0.78,0.882-1.959,1.467-3.537,1.755
			c-0.509,0.102-1.179,0.153-2.01,0.153c-0.831,0-1.764-0.178-2.799-0.535c-1.035-0.356-1.943-0.89-2.723-1.603
			c-1.713-1.594-2.57-3.749-2.57-6.463c0-2.816,0.882-5.072,2.646-6.769c1.594-1.543,3.511-2.315,5.75-2.315
			c1.477,0,2.91,0.204,4.301,0.611l0.509,5.267h-2.061C18.833,65.386,18.562,64.784,18.375,64.36z"/>
		<path fill="#202758" d="M32.166,77.872v-1.909l2.036-0.535l-0.916-3.104h-4.987l-0.967,3.206l2.239,0.407v1.934h-6.082
			l-0.331-1.985l1.399-0.458l5.039-15.114h3.155l5.114,15.114l1.171,0.458l-0.254,1.985H32.166z M29.087,69.652h3.079l-1.349-5.725
			L29.087,69.652z"/>
		<path fill="#202758" d="M54.66,66.039c0,2.443-1.179,4.148-3.537,5.114l2.239,4.25l1.603,0.255v2.214h-4.3l-2.646-5.955
			c-0.594,0.051-1.213,0.076-1.857,0.076v3.461l1.323,0.204v2.214h-6.183l-0.229-2.163l1.756-0.356V62.808l-1.731-0.178v-2.315
			h6.234c2.426,0,4.275,0.535,5.547,1.603C54.065,62.935,54.66,64.309,54.66,66.039z M46.161,69.296
			c0.102,0.018,0.229,0.025,0.382,0.025H47c1.408,0,2.485-0.313,3.232-0.941c0.661-0.56,0.992-1.314,0.992-2.265
			c0-1.068-0.348-1.832-1.043-2.29c-0.798-0.542-2.138-0.814-4.021-0.814V69.296z"/>
		<path fill="#202758" d="M69.341,60.314l0.484,5.19H67.84l-1.043-2.519h-4.123v4.529h3.868v2.672h-3.868v5.012h4.301l0.941-2.519
			h2.01l-0.535,5.191H58.043l-0.356-2.24l1.654-0.331V62.757l-1.604-0.178v-2.265H69.341z"/>
		<path fill="#202758" d="M84.481,60.314l0.483,5.19H82.98l-1.043-2.519h-4.122v4.529h3.868v2.672h-3.868v5.012h4.3l0.941-2.519
			h2.01l-0.535,5.191H73.184l-0.356-2.24l1.655-0.331V62.757l-1.604-0.178v-2.265H84.481z"/>
		<path fill="#202758" d="M101.53,66.039c0,2.443-1.179,4.148-3.537,5.114l2.239,4.25l1.603,0.255v2.214h-4.3l-2.646-5.955
			c-0.594,0.051-1.213,0.076-1.857,0.076v3.461l1.323,0.204v2.214h-6.184l-0.229-2.163l1.756-0.356V62.808l-1.731-0.178v-2.315
			h6.234c2.426,0,4.275,0.535,5.547,1.603C100.936,62.935,101.53,64.309,101.53,66.039z M93.031,69.296
			c0.102,0.018,0.229,0.025,0.382,0.025h0.458c1.408,0,2.485-0.313,3.232-0.941c0.661-0.56,0.992-1.314,0.992-2.265
			c0-1.068-0.348-1.832-1.043-2.29c-0.797-0.542-2.138-0.814-4.021-0.814V69.296z"/>
		<path fill="#EF3924" d="M111.619,74.818c0.28-0.17,0.5-0.386,0.662-0.649c0.161-0.263,0.241-0.573,0.241-0.929
			s-0.063-0.657-0.19-0.903c-0.127-0.246-0.327-0.471-0.598-0.674c-0.322-0.254-0.971-0.61-1.947-1.068
			c-0.976-0.458-1.743-0.84-2.303-1.146c-0.56-0.305-1.052-0.653-1.476-1.043c-0.882-0.866-1.323-1.985-1.323-3.359
			c0-1.425,0.577-2.596,1.73-3.512c1.103-0.848,2.51-1.272,4.224-1.272c1.594,0,3.207,0.229,4.835,0.687l0.382,4.834h-2.138
			l-1.247-2.697c-0.661-0.102-1.34-0.153-2.036-0.153s-1.251,0.187-1.667,0.559c-0.416,0.374-0.623,0.781-0.623,1.222
			c0,0.441,0.109,0.793,0.33,1.056c0.221,0.263,0.5,0.496,0.84,0.7c0.407,0.255,1.073,0.598,1.998,1.031
			c0.925,0.433,1.667,0.823,2.227,1.17s1.018,0.725,1.374,1.132c0.729,0.797,1.095,1.726,1.095,2.786
			c0,1.061-0.188,1.921-0.56,2.583c-0.374,0.662-0.857,1.205-1.45,1.629c-1.12,0.78-2.562,1.17-4.326,1.17
			c-1.561,0-3.291-0.382-5.19-1.145l0.508-4.911l2.138,0.178l0.204,2.825c0.22,0.05,0.521,0.127,0.903,0.229
			c0.381,0.102,0.793,0.153,1.234,0.153s0.84-0.038,1.196-0.114C111.021,75.11,111.339,74.988,111.619,74.818z"/>
		<path fill="#EF3924" d="M121.275,75.835l2.927-0.56v-12.29h-2.875l-1.094,2.544h-1.959l0.483-5.216h14.122l0.56,5.19h-1.934
			l-1.119-2.519h-2.901v12.29l2.952,0.56l-0.254,2.036h-8.652L121.275,75.835z"/>
		<path fill="#EF3924" d="M149.24,66.039c0,2.443-1.179,4.148-3.537,5.114l2.239,4.25l1.603,0.255v2.214h-4.3l-2.646-5.955
			c-0.594,0.051-1.213,0.076-1.857,0.076v3.461l1.323,0.204v2.214h-6.184l-0.228-2.163l1.755-0.356V62.808l-1.731-0.178v-2.315
			h6.234c2.426,0,4.275,0.535,5.547,1.603C148.646,62.935,149.24,64.309,149.24,66.039z M140.742,69.296
			c0.102,0.018,0.229,0.025,0.381,0.025h0.458c1.408,0,2.485-0.313,3.232-0.941c0.661-0.56,0.992-1.314,0.992-2.265
			c0-1.068-0.348-1.832-1.043-2.29c-0.797-0.542-2.137-0.814-4.02-0.814V69.296z"/>
		<path fill="#EF3924" d="M163.922,60.314l0.483,5.19h-1.985l-1.043-2.519h-4.122v4.529h3.868v2.672h-3.868v5.012h4.3l0.941-2.519
			h2.01l-0.535,5.191h-11.349l-0.356-2.24l1.655-0.331V62.757l-1.604-0.178v-2.265H163.922z"/>
		<path fill="#EF3924" d="M179.062,60.314l0.484,5.19h-1.985l-1.043-2.519h-4.122v4.529h3.868v2.672h-3.868v5.012h4.3l0.941-2.519
			h2.01l-0.534,5.191h-11.349l-0.356-2.24l1.654-0.331V62.757l-1.604-0.178v-2.265H179.062z"/>
		<path fill="#EF3924" d="M184.813,75.835l2.926-0.56v-12.29h-2.875l-1.094,2.544h-1.959l0.484-5.216h14.122l0.56,5.19h-1.934
			l-1.119-2.519h-2.901v12.29l2.952,0.56l-0.254,2.036h-8.652L184.813,75.835z"/>
		<path fill="#EF3924" d="M206.275,74.818c0.28-0.17,0.5-0.386,0.662-0.649c0.161-0.263,0.241-0.573,0.241-0.929
			s-0.063-0.657-0.19-0.903c-0.127-0.246-0.327-0.471-0.598-0.674c-0.322-0.254-0.971-0.61-1.947-1.068
			c-0.976-0.458-1.743-0.84-2.303-1.146c-0.56-0.305-1.052-0.653-1.476-1.043c-0.882-0.866-1.324-1.985-1.324-3.359
			c0-1.425,0.577-2.596,1.731-3.512c1.103-0.848,2.51-1.272,4.224-1.272c1.594,0,3.207,0.229,4.835,0.687l0.382,4.834h-2.138
			l-1.247-2.697c-0.661-0.102-1.34-0.153-2.036-0.153s-1.251,0.187-1.667,0.559c-0.416,0.374-0.623,0.781-0.623,1.222
			c0,0.441,0.109,0.793,0.33,1.056c0.221,0.263,0.5,0.496,0.84,0.7c0.407,0.255,1.073,0.598,1.998,1.031
			c0.925,0.433,1.667,0.823,2.227,1.17s1.018,0.725,1.374,1.132c0.729,0.797,1.095,1.726,1.095,2.786
			c0,1.061-0.188,1.921-0.56,2.583c-0.374,0.662-0.857,1.205-1.45,1.629c-1.12,0.78-2.562,1.17-4.326,1.17
			c-1.561,0-3.292-0.382-5.19-1.145l0.508-4.911l2.138,0.178l0.204,2.825c0.22,0.05,0.521,0.127,0.903,0.229
			c0.381,0.102,0.793,0.153,1.234,0.153s0.84-0.038,1.196-0.114C205.678,75.11,205.996,74.988,206.275,74.818z"/>
	</g>
	<g>
		<path fill="#2379B5" d="M125.914,87.474c-0.062,0.088-0.124,0.153-0.186,0.195c-0.062,0.042-0.137,0.063-0.226,0.063
			s-0.179-0.035-0.272-0.106c-0.093-0.07-0.203-0.148-0.332-0.235c-0.128-0.086-0.279-0.165-0.454-0.235
			c-0.175-0.07-0.386-0.106-0.633-0.106c-0.244,0-0.458,0.036-0.644,0.106c-0.185,0.071-0.341,0.168-0.468,0.292
			c-0.126,0.124-0.221,0.27-0.285,0.438s-0.096,0.349-0.096,0.543c0,0.204,0.052,0.373,0.156,0.507
			c0.104,0.135,0.24,0.253,0.408,0.355s0.36,0.192,0.577,0.271c0.217,0.08,0.437,0.164,0.66,0.252s0.443,0.19,0.66,0.305
			c0.216,0.115,0.409,0.256,0.577,0.424c0.168,0.168,0.304,0.37,0.408,0.606c0.104,0.237,0.156,0.523,0.156,0.859
			c0,0.469-0.081,0.911-0.242,1.326c-0.162,0.416-0.394,0.78-0.696,1.091s-0.67,0.559-1.101,0.743
			c-0.431,0.183-0.917,0.275-1.456,0.275c-0.279,0-0.553-0.03-0.822-0.09c-0.27-0.06-0.524-0.145-0.763-0.255
			c-0.239-0.11-0.46-0.243-0.663-0.398c-0.204-0.154-0.381-0.327-0.531-0.517l0.61-0.822c0.049-0.063,0.111-0.113,0.186-0.153
			c0.075-0.04,0.15-0.06,0.225-0.06c0.071,0,0.141,0.022,0.209,0.066s0.144,0.098,0.225,0.162c0.082,0.064,0.17,0.135,0.265,0.212
			c0.095,0.077,0.205,0.148,0.329,0.212c0.124,0.064,0.263,0.118,0.418,0.163c0.154,0.044,0.334,0.066,0.537,0.066
			c0.5,0,0.891-0.141,1.174-0.424c0.283-0.283,0.424-0.674,0.424-1.174c0-0.221-0.051-0.402-0.153-0.544
			c-0.101-0.141-0.236-0.261-0.404-0.358s-0.358-0.183-0.57-0.255c-0.212-0.073-0.43-0.15-0.653-0.232
			c-0.224-0.082-0.441-0.177-0.653-0.285c-0.212-0.109-0.402-0.248-0.57-0.418c-0.168-0.17-0.303-0.379-0.405-0.627
			c-0.102-0.248-0.152-0.552-0.152-0.915c0-0.411,0.076-0.807,0.229-1.187c0.153-0.38,0.371-0.715,0.653-1.005
			s0.626-0.522,1.031-0.697c0.405-0.174,0.861-0.262,1.37-0.262c0.261,0,0.511,0.026,0.752,0.08
			c0.241,0.053,0.465,0.128,0.674,0.226c0.208,0.098,0.398,0.213,0.573,0.348c0.175,0.135,0.326,0.284,0.454,0.448L125.914,87.474z"
			/>
		<path fill="#2379B5" d="M126.803,95.339l1.2-9.855h1.631l-0.511,4.212c0.332-0.429,0.691-0.748,1.078-0.956
			c0.387-0.208,0.781-0.312,1.184-0.312c0.256,0,0.488,0.045,0.696,0.136c0.208,0.09,0.384,0.223,0.53,0.397
			c0.146,0.175,0.258,0.389,0.338,0.644c0.08,0.254,0.119,0.547,0.119,0.879c0,0.084-0.003,0.169-0.01,0.255
			c-0.006,0.086-0.014,0.175-0.023,0.268l-0.511,4.331h-1.638l0.511-4.331c0.009-0.079,0.017-0.154,0.023-0.225
			c0.007-0.07,0.01-0.137,0.01-0.199c0-0.292-0.056-0.502-0.166-0.63c-0.111-0.128-0.279-0.192-0.504-0.192
			c-0.168,0-0.343,0.048-0.524,0.143c-0.181,0.095-0.355,0.23-0.523,0.404c-0.168,0.175-0.326,0.386-0.471,0.634
			c-0.146,0.248-0.27,0.523-0.371,0.829l-0.431,3.568H126.803z"/>
		<path fill="#2379B5" d="M139.423,95.339h-0.862c-0.199,0-0.338-0.046-0.418-0.139c-0.079-0.093-0.12-0.21-0.12-0.352l0.053-0.928
			c-0.301,0.468-0.639,0.839-1.015,1.111s-0.789,0.408-1.24,0.408c-0.256,0-0.496-0.051-0.72-0.153
			c-0.223-0.102-0.417-0.253-0.583-0.454c-0.166-0.201-0.296-0.453-0.391-0.756c-0.095-0.302-0.142-0.657-0.142-1.064
			c0-0.407,0.05-0.802,0.152-1.187c0.102-0.385,0.247-0.747,0.435-1.084c0.188-0.338,0.415-0.649,0.68-0.932
			s0.563-0.526,0.892-0.729c0.329-0.203,0.686-0.361,1.068-0.474c0.382-0.112,0.786-0.169,1.21-0.169
			c0.305,0,0.611,0.022,0.918,0.066c0.307,0.044,0.609,0.124,0.905,0.239L139.423,95.339z M136.465,94.099
			c0.181,0,0.359-0.062,0.534-0.186c0.174-0.124,0.339-0.295,0.494-0.514c0.155-0.219,0.299-0.477,0.431-0.772
			c0.133-0.296,0.248-0.615,0.345-0.955l0.259-2.056c-0.12-0.013-0.23-0.02-0.332-0.02c-0.367,0-0.708,0.083-1.021,0.251
			c-0.314,0.169-0.585,0.395-0.816,0.68c-0.229,0.285-0.41,0.617-0.54,0.995c-0.131,0.378-0.196,0.777-0.196,1.198
			c0,0.477,0.075,0.826,0.225,1.047C135.999,93.989,136.205,94.099,136.465,94.099z"/>
		<path fill="#2379B5" d="M140.803,97.561l1.101-9.033h0.829c0.15,0,0.279,0.032,0.385,0.096c0.106,0.064,0.159,0.169,0.159,0.315
			c0,0.026-0.002,0.074-0.006,0.143c-0.005,0.068-0.009,0.177-0.014,0.325c-0.005,0.148-0.013,0.357-0.027,0.626
			c0.328-0.491,0.698-0.881,1.111-1.17c0.414-0.29,0.85-0.435,1.31-0.435c0.283,0,0.541,0.052,0.773,0.156
			c0.232,0.104,0.43,0.259,0.594,0.467c0.164,0.208,0.289,0.471,0.378,0.79c0.088,0.318,0.132,0.691,0.132,1.12
			c0,0.385-0.04,0.763-0.12,1.134c-0.079,0.372-0.192,0.723-0.338,1.055c-0.146,0.332-0.319,0.637-0.521,0.916
			c-0.201,0.278-0.425,0.519-0.673,0.723c-0.248,0.203-0.512,0.363-0.792,0.478c-0.281,0.115-0.572,0.172-0.873,0.172
			c-0.305,0-0.583-0.054-0.833-0.162c-0.25-0.109-0.465-0.26-0.646-0.455l-0.338,2.739H140.803z M145.014,89.715
			c-0.182,0-0.365,0.061-0.551,0.182c-0.186,0.122-0.365,0.29-0.537,0.505c-0.172,0.214-0.333,0.467-0.48,0.759
			c-0.148,0.292-0.275,0.606-0.382,0.942l-0.199,1.651c0.15,0.159,0.321,0.271,0.514,0.338c0.192,0.066,0.384,0.1,0.574,0.1
			c0.292,0,0.557-0.091,0.796-0.272c0.239-0.182,0.443-0.418,0.613-0.71c0.17-0.292,0.302-0.62,0.395-0.985s0.139-0.73,0.139-1.098
			c0-0.478-0.078-0.832-0.232-1.064C145.509,89.832,145.292,89.715,145.014,89.715z"/>
		<path fill="#2379B5" d="M150.817,88.535l-0.815,6.804h-1.619l0.816-6.804H150.817z M151.228,86.552
			c0,0.142-0.03,0.274-0.089,0.398c-0.06,0.123-0.137,0.232-0.232,0.325s-0.205,0.167-0.328,0.222
			c-0.124,0.056-0.252,0.083-0.385,0.083c-0.128,0-0.253-0.027-0.375-0.083c-0.122-0.055-0.229-0.129-0.321-0.222
			c-0.093-0.093-0.167-0.202-0.222-0.325c-0.055-0.124-0.083-0.257-0.083-0.398c0-0.141,0.029-0.276,0.086-0.404
			c0.057-0.128,0.132-0.24,0.225-0.335c0.093-0.095,0.2-0.17,0.322-0.226c0.122-0.055,0.247-0.083,0.375-0.083
			c0.133,0,0.261,0.028,0.385,0.083c0.124,0.056,0.233,0.129,0.329,0.222s0.171,0.203,0.229,0.332
			C151.199,86.269,151.228,86.406,151.228,86.552z"/>
		<path fill="#2379B5" d="M151.785,95.339l0.816-6.811h0.835c0.173,0,0.307,0.042,0.402,0.126c0.095,0.084,0.143,0.219,0.143,0.404
			l-0.046,0.882c0.344-0.508,0.727-0.888,1.147-1.137c0.42-0.25,0.854-0.375,1.3-0.375c0.252,0,0.481,0.045,0.687,0.136
			c0.206,0.09,0.381,0.223,0.527,0.397c0.146,0.175,0.258,0.389,0.338,0.644c0.08,0.254,0.119,0.547,0.119,0.879
			c0,0.084-0.003,0.169-0.01,0.255c-0.006,0.086-0.015,0.175-0.023,0.268l-0.51,4.331h-1.639c0.089-0.747,0.164-1.38,0.226-1.9
			c0.063-0.52,0.113-0.952,0.153-1.297c0.04-0.345,0.071-0.615,0.093-0.813c0.022-0.197,0.039-0.345,0.05-0.447
			c0.011-0.102,0.018-0.169,0.02-0.203c0.002-0.033,0.003-0.06,0.003-0.083c0-0.291-0.053-0.503-0.159-0.633
			c-0.106-0.131-0.272-0.196-0.498-0.196c-0.181,0-0.37,0.053-0.563,0.159c-0.195,0.106-0.381,0.257-0.557,0.451
			c-0.177,0.195-0.338,0.429-0.484,0.703c-0.146,0.274-0.265,0.579-0.358,0.915l-0.371,3.343H151.785z"/>
		<path fill="#2379B5" d="M164.419,90.504c0,0.204-0.022,0.386-0.066,0.548c-0.045,0.161-0.099,0.31-0.163,0.447
			c-0.064,0.137-0.133,0.266-0.208,0.388c-0.075,0.122-0.146,0.246-0.212,0.372c-0.067,0.125-0.121,0.258-0.163,0.397
			s-0.063,0.293-0.063,0.461c0,0.182,0.037,0.349,0.113,0.5c0.075,0.153,0.157,0.309,0.245,0.468
			c0.088,0.159,0.17,0.329,0.246,0.511c0.075,0.181,0.113,0.392,0.113,0.63c0,0.336-0.076,0.655-0.226,0.958
			c-0.15,0.303-0.367,0.568-0.65,0.796s-0.627,0.408-1.035,0.541c-0.407,0.132-0.867,0.199-1.379,0.199
			c-0.42,0-0.797-0.043-1.131-0.129c-0.334-0.087-0.619-0.207-0.855-0.362s-0.418-0.337-0.544-0.547
			c-0.125-0.21-0.189-0.44-0.189-0.693c0-0.375,0.095-0.692,0.285-0.948c0.19-0.256,0.436-0.463,0.736-0.62
			c0.3-0.157,0.637-0.27,1.011-0.338c0.374-0.068,0.746-0.103,1.118-0.103c0.181,0,0.358,0.008,0.531,0.023
			c0.172,0.016,0.336,0.037,0.49,0.063c-0.018-0.071-0.032-0.142-0.043-0.212c-0.011-0.071-0.017-0.146-0.017-0.226
			c0-0.256,0.071-0.54,0.212-0.849c-0.168,0.115-0.358,0.204-0.57,0.266c-0.212,0.062-0.469,0.093-0.769,0.093
			c-0.257,0-0.501-0.042-0.733-0.126c-0.231-0.083-0.437-0.212-0.613-0.384c-0.177-0.173-0.317-0.388-0.421-0.647
			c-0.104-0.258-0.156-0.56-0.156-0.905c0-0.332,0.062-0.656,0.186-0.972c0.124-0.316,0.307-0.599,0.55-0.849
			c0.243-0.25,0.543-0.45,0.902-0.6s0.773-0.226,1.247-0.226c0.252,0,0.492,0.03,0.72,0.09c0.227,0.06,0.437,0.147,0.626,0.262
			h1.903l-0.073,0.531c-0.018,0.106-0.052,0.197-0.103,0.271c-0.051,0.075-0.125,0.126-0.222,0.153l-0.696,0.186
			c0.022,0.089,0.038,0.182,0.049,0.279C164.414,90.297,164.419,90.399,164.419,90.504z M162.768,95.366
			c0-0.062-0.003-0.123-0.01-0.183c-0.007-0.059-0.015-0.116-0.023-0.169c-0.239-0.04-0.459-0.068-0.66-0.086
			c-0.202-0.018-0.391-0.026-0.567-0.026c-0.3,0-0.559,0.024-0.773,0.073s-0.391,0.113-0.53,0.192
			c-0.139,0.08-0.241,0.172-0.305,0.279c-0.063,0.106-0.096,0.219-0.096,0.338c0,0.265,0.106,0.466,0.318,0.604
			c0.212,0.137,0.539,0.205,0.981,0.205c0.248,0,0.473-0.031,0.676-0.093c0.204-0.062,0.378-0.148,0.524-0.258
			c0.146-0.111,0.26-0.242,0.341-0.392C162.727,95.7,162.768,95.539,162.768,95.366z M161.7,92.149c0.199,0,0.374-0.046,0.524-0.139
			c0.15-0.093,0.277-0.214,0.381-0.365c0.104-0.15,0.182-0.32,0.235-0.507c0.053-0.188,0.08-0.379,0.08-0.574
			c0-0.332-0.077-0.586-0.232-0.763c-0.154-0.176-0.38-0.265-0.676-0.265c-0.199,0-0.374,0.043-0.524,0.129
			s-0.276,0.202-0.378,0.345c-0.102,0.144-0.178,0.308-0.229,0.494c-0.051,0.186-0.076,0.378-0.076,0.577
			c0,0.34,0.076,0.604,0.229,0.79C161.187,92.057,161.408,92.149,161.7,92.149z"/>
		<path fill="#2379B5" d="M172.47,93.986c0.269,0,0.505-0.021,0.706-0.063c0.202-0.042,0.376-0.096,0.524-0.163
			c0.148-0.066,0.275-0.136,0.381-0.208c0.106-0.073,0.199-0.143,0.278-0.209c0.08-0.067,0.15-0.121,0.212-0.163
			s0.124-0.063,0.186-0.063c0.053,0,0.098,0.011,0.132,0.033c0.036,0.022,0.064,0.044,0.087,0.066l0.604,0.75
			c-0.416,0.477-0.905,0.843-1.466,1.097c-0.562,0.254-1.207,0.382-1.937,0.382c-0.588,0-1.112-0.105-1.572-0.315
			c-0.46-0.21-0.849-0.501-1.167-0.873c-0.318-0.372-0.56-0.812-0.727-1.32c-0.166-0.508-0.248-1.063-0.248-1.665
			c0-0.553,0.059-1.075,0.179-1.569c0.119-0.493,0.29-0.948,0.511-1.366s0.486-0.792,0.796-1.124
			c0.309-0.332,0.652-0.615,1.028-0.849c0.375-0.234,0.781-0.413,1.216-0.537s0.89-0.186,1.363-0.186
			c0.349,0,0.667,0.032,0.955,0.096c0.287,0.064,0.548,0.153,0.783,0.269c0.234,0.115,0.444,0.253,0.63,0.414
			c0.186,0.162,0.354,0.342,0.504,0.541l-0.597,0.716c-0.044,0.053-0.096,0.1-0.156,0.14c-0.06,0.04-0.134,0.06-0.222,0.06
			c-0.097,0-0.19-0.04-0.278-0.12c-0.089-0.08-0.2-0.167-0.334-0.262c-0.135-0.095-0.31-0.183-0.524-0.262
			c-0.214-0.08-0.496-0.12-0.846-0.12c-0.46,0-0.886,0.094-1.28,0.282c-0.394,0.188-0.736,0.457-1.027,0.806
			c-0.292,0.349-0.521,0.771-0.687,1.263c-0.166,0.493-0.248,1.047-0.248,1.661c0,0.447,0.056,0.847,0.169,1.201
			c0.113,0.354,0.268,0.653,0.467,0.898s0.436,0.434,0.71,0.563C171.848,93.921,172.147,93.986,172.47,93.986z"/>
		<path fill="#2379B5" d="M181.801,95.339h-0.862c-0.199,0-0.338-0.046-0.418-0.139c-0.079-0.093-0.119-0.21-0.119-0.352
			l0.053-0.928c-0.301,0.468-0.639,0.839-1.015,1.111c-0.375,0.272-0.789,0.408-1.24,0.408c-0.256,0-0.496-0.051-0.719-0.153
			c-0.224-0.102-0.417-0.253-0.584-0.454c-0.166-0.201-0.296-0.453-0.391-0.756c-0.096-0.302-0.143-0.657-0.143-1.064
			c0-0.407,0.05-0.802,0.152-1.187c0.102-0.385,0.247-0.747,0.435-1.084s0.415-0.649,0.68-0.932
			c0.266-0.283,0.563-0.526,0.892-0.729c0.329-0.203,0.686-0.361,1.068-0.474c0.382-0.112,0.786-0.169,1.21-0.169
			c0.305,0,0.611,0.022,0.918,0.066c0.307,0.044,0.609,0.124,0.905,0.239L181.801,95.339z M178.843,94.099
			c0.181,0,0.359-0.062,0.534-0.186c0.174-0.124,0.339-0.295,0.494-0.514c0.155-0.219,0.299-0.477,0.431-0.772
			c0.133-0.296,0.248-0.615,0.345-0.955l0.259-2.056c-0.12-0.013-0.229-0.02-0.332-0.02c-0.367,0-0.708,0.083-1.021,0.251
			c-0.314,0.169-0.585,0.395-0.815,0.68s-0.41,0.617-0.541,0.995c-0.13,0.378-0.195,0.777-0.195,1.198
			c0,0.477,0.075,0.826,0.225,1.047C178.377,93.989,178.583,94.099,178.843,94.099z"/>
		<path fill="#2379B5" d="M183.453,95.339l0.829-6.811h0.829c0.159,0,0.29,0.036,0.392,0.106c0.102,0.07,0.153,0.183,0.153,0.338
			c0,0.031-0.003,0.084-0.007,0.159c-0.004,0.075-0.009,0.193-0.014,0.354c-0.004,0.162-0.013,0.388-0.026,0.68
			c0.279-0.534,0.583-0.948,0.916-1.24c0.332-0.292,0.676-0.438,1.035-0.438c0.181,0,0.365,0.04,0.55,0.119l-0.299,1.565
			c-0.221-0.093-0.431-0.139-0.63-0.139c-0.393,0-0.738,0.188-1.035,0.563c-0.296,0.376-0.54,0.964-0.729,1.764l-0.358,2.978
			H183.453z"/>
		<path fill="#2379B5" d="M193.885,90.113c0,0.305-0.061,0.583-0.183,0.836c-0.122,0.251-0.339,0.477-0.653,0.676
			s-0.739,0.371-1.276,0.514c-0.537,0.144-1.221,0.257-2.053,0.341v0.086c0,1.07,0.454,1.604,1.36,1.604
			c0.194,0,0.367-0.019,0.518-0.056c0.15-0.038,0.282-0.083,0.394-0.137c0.113-0.052,0.214-0.112,0.306-0.179
			c0.09-0.066,0.174-0.126,0.251-0.179c0.078-0.053,0.154-0.098,0.229-0.136s0.157-0.057,0.246-0.057
			c0.053,0,0.106,0.013,0.159,0.037c0.053,0.024,0.097,0.061,0.132,0.109l0.418,0.504c-0.234,0.235-0.464,0.438-0.689,0.61
			c-0.226,0.172-0.456,0.314-0.69,0.424c-0.234,0.111-0.482,0.192-0.743,0.246s-0.545,0.08-0.855,0.08
			c-0.398,0-0.758-0.067-1.081-0.203c-0.322-0.134-0.599-0.325-0.829-0.57c-0.23-0.246-0.408-0.542-0.534-0.889
			c-0.126-0.347-0.189-0.735-0.189-1.164c0-0.358,0.038-0.71,0.116-1.054c0.077-0.345,0.189-0.673,0.335-0.982
			c0.146-0.31,0.325-0.595,0.537-0.855s0.452-0.486,0.72-0.676c0.268-0.19,0.561-0.338,0.882-0.445s0.665-0.159,1.032-0.159
			c0.358,0,0.67,0.051,0.938,0.152c0.268,0.102,0.491,0.234,0.67,0.395s0.313,0.342,0.401,0.541
			C193.841,89.729,193.885,89.923,193.885,90.113z M191.65,89.583c-0.221,0-0.427,0.046-0.617,0.136
			c-0.19,0.091-0.361,0.218-0.514,0.381c-0.152,0.164-0.285,0.359-0.397,0.587c-0.113,0.228-0.203,0.477-0.269,0.746
			c0.548-0.075,0.989-0.157,1.323-0.245c0.333-0.088,0.592-0.186,0.776-0.292c0.183-0.106,0.305-0.219,0.365-0.338
			c0.06-0.119,0.089-0.248,0.089-0.385c0-0.066-0.014-0.134-0.043-0.205s-0.073-0.134-0.133-0.189
			c-0.06-0.055-0.137-0.102-0.232-0.139S191.787,89.583,191.65,89.583z"/>
		<path fill="#2379B5" d="M200.291,90.113c0,0.305-0.061,0.583-0.183,0.836c-0.122,0.251-0.339,0.477-0.653,0.676
			s-0.739,0.371-1.276,0.514c-0.537,0.144-1.221,0.257-2.053,0.341v0.086c0,1.07,0.454,1.604,1.36,1.604
			c0.194,0,0.367-0.019,0.518-0.056c0.15-0.038,0.282-0.083,0.394-0.137c0.113-0.052,0.214-0.112,0.306-0.179
			c0.09-0.066,0.174-0.126,0.251-0.179s0.154-0.098,0.229-0.136s0.157-0.057,0.246-0.057c0.053,0,0.106,0.013,0.159,0.037
			c0.053,0.024,0.097,0.061,0.132,0.109l0.418,0.504c-0.234,0.235-0.464,0.438-0.689,0.61c-0.226,0.172-0.456,0.314-0.69,0.424
			c-0.234,0.111-0.482,0.192-0.743,0.246s-0.545,0.08-0.855,0.08c-0.398,0-0.758-0.067-1.081-0.203
			c-0.322-0.134-0.599-0.325-0.829-0.57c-0.23-0.246-0.408-0.542-0.534-0.889c-0.126-0.347-0.188-0.735-0.188-1.164
			c0-0.358,0.038-0.71,0.116-1.054c0.077-0.345,0.189-0.673,0.335-0.982c0.146-0.31,0.325-0.595,0.537-0.855s0.452-0.486,0.72-0.676
			c0.268-0.19,0.561-0.338,0.882-0.445c0.32-0.106,0.665-0.159,1.032-0.159c0.358,0,0.67,0.051,0.938,0.152
			c0.268,0.102,0.491,0.234,0.67,0.395s0.313,0.342,0.401,0.541C200.247,89.729,200.291,89.923,200.291,90.113z M198.056,89.583
			c-0.221,0-0.426,0.046-0.616,0.136c-0.19,0.091-0.361,0.218-0.514,0.381c-0.152,0.164-0.285,0.359-0.397,0.587
			c-0.113,0.228-0.203,0.477-0.269,0.746c0.548-0.075,0.989-0.157,1.323-0.245c0.333-0.088,0.592-0.186,0.776-0.292
			c0.183-0.106,0.305-0.219,0.365-0.338c0.06-0.119,0.089-0.248,0.089-0.385c0-0.066-0.014-0.134-0.043-0.205
			s-0.073-0.134-0.133-0.189c-0.06-0.055-0.137-0.102-0.232-0.139S198.193,89.583,198.056,89.583z"/>
		<path fill="#2379B5" d="M200.955,95.339l0.829-6.811h0.829c0.159,0,0.29,0.036,0.392,0.106c0.102,0.07,0.153,0.183,0.153,0.338
			c0,0.031-0.003,0.084-0.007,0.159c-0.004,0.075-0.009,0.193-0.014,0.354c-0.004,0.162-0.013,0.388-0.026,0.68
			c0.279-0.534,0.583-0.948,0.916-1.24c0.332-0.292,0.677-0.438,1.035-0.438c0.181,0,0.365,0.04,0.55,0.119l-0.299,1.565
			c-0.221-0.093-0.431-0.139-0.63-0.139c-0.393,0-0.738,0.188-1.035,0.563c-0.296,0.376-0.54,0.964-0.729,1.764l-0.358,2.978
			H200.955z"/>
		<path fill="#2379B5" d="M210.425,89.815c-0.048,0.071-0.096,0.121-0.14,0.149s-0.102,0.043-0.172,0.043
			c-0.075,0-0.153-0.022-0.232-0.066c-0.08-0.044-0.171-0.094-0.275-0.149c-0.104-0.056-0.224-0.105-0.359-0.149
			c-0.134-0.044-0.297-0.066-0.487-0.066c-0.35,0-0.617,0.079-0.803,0.235c-0.186,0.157-0.279,0.353-0.279,0.587
			c0,0.137,0.039,0.252,0.117,0.348c0.077,0.095,0.178,0.178,0.301,0.249c0.124,0.071,0.266,0.136,0.424,0.196
			c0.16,0.059,0.323,0.124,0.491,0.192c0.168,0.069,0.331,0.146,0.491,0.232c0.159,0.087,0.3,0.191,0.424,0.315
			c0.124,0.124,0.225,0.273,0.302,0.448s0.116,0.383,0.116,0.626c0,0.327-0.065,0.639-0.196,0.935s-0.317,0.556-0.561,0.78
			c-0.243,0.223-0.537,0.4-0.882,0.53c-0.345,0.13-0.729,0.196-1.154,0.196c-0.217,0-0.426-0.021-0.626-0.063
			c-0.202-0.042-0.391-0.1-0.567-0.176c-0.177-0.075-0.337-0.164-0.481-0.265s-0.267-0.212-0.368-0.332l0.398-0.624
			c0.049-0.075,0.107-0.132,0.176-0.172c0.069-0.04,0.149-0.06,0.242-0.06c0.093,0,0.177,0.029,0.252,0.086
			c0.075,0.058,0.164,0.121,0.265,0.189c0.102,0.069,0.225,0.132,0.368,0.189c0.144,0.058,0.328,0.086,0.554,0.086
			c0.181,0,0.342-0.024,0.481-0.073s0.256-0.115,0.351-0.199c0.095-0.083,0.167-0.181,0.216-0.292
			c0.048-0.11,0.073-0.228,0.073-0.352c0-0.15-0.037-0.275-0.112-0.375s-0.176-0.186-0.302-0.258
			c-0.126-0.073-0.269-0.137-0.428-0.192c-0.159-0.056-0.321-0.114-0.487-0.176s-0.327-0.132-0.484-0.212
			c-0.157-0.08-0.298-0.18-0.425-0.301c-0.126-0.122-0.227-0.27-0.301-0.445c-0.075-0.175-0.113-0.388-0.113-0.64
			c0-0.3,0.058-0.593,0.173-0.878c0.115-0.285,0.284-0.537,0.507-0.756c0.223-0.219,0.497-0.394,0.822-0.527
			c0.325-0.133,0.697-0.199,1.118-0.199c0.433,0,0.817,0.074,1.15,0.222c0.334,0.148,0.616,0.337,0.846,0.567L210.425,89.815z"/>
	</g>
</g>
</svg>
