<svg width="20" height="20" viewBox="0 0 20 20" fill="none" xmlns="http://www.w3.org/2000/svg">
<path d="M2.95881 0.806788L9.99863 7.84591L17.0384 0.828119C17.3188 0.542928 17.7055 0.38828 18.1051 0.401505C18.9074 0.453339 19.5465 1.09241 19.5984 1.89465C19.6022 2.27989 19.448 2.64997 19.1717 2.91853L12.1106 10.0003L19.1717 17.0821C19.448 17.3507 19.6022 17.7207 19.5984 18.106C19.5465 18.9082 18.9074 19.5473 18.1051 19.5991C17.7055 19.6123 17.3188 19.4577 17.0384 19.1725L9.99863 12.1547L2.98015 19.1725C2.69983 19.4577 2.31307 19.6123 1.91351 19.5991C1.0954 19.5565 0.441547 18.9027 0.398882 18.0846C0.395042 17.6994 0.549278 17.3293 0.825537 17.0608L7.88668 10.0003L0.804204 2.91853C0.535625 2.64635 0.389282 2.2769 0.398882 1.89465C0.45072 1.09241 1.08985 0.453339 1.89218 0.401505C2.28854 0.382734 2.67487 0.52949 2.95881 0.806788Z" fill="#000"/>
</svg>
